<svg width="56" height="56" viewBox="0 0 56 56" fill="none" xmlns="http://www.w3.org/2000/svg">
<g id="4. Elements / Icons / Basics / Marketing">
<path id="Combined Shape" fill-rule="evenodd" clip-rule="evenodd" d="M50.0409 9.18005C49.6909 9.18005 49.3455 9.02117 49.1198 8.71952C48.7376 8.21064 48.8412 7.48994 49.3501 7.10767L53.9554 3.65371C54.4642 3.27147 55.1849 3.37509 55.5672 3.88397C55.9495 4.39285 55.8458 5.11355 55.337 5.49582L50.7317 8.94979C50.5245 9.10406 50.2827 9.18005 50.0409 9.18005ZM37.9335 43.7197H37.952C39.0296 43.7197 40.0404 43.3006 40.8026 42.5407C41.5625 41.7786 41.9815 40.7677 41.9815 39.6901V30.7731L49.2051 28.7093C49.7002 28.5665 50.0409 28.1152 50.0409 27.6017V20.6937C50.0409 20.1802 49.7001 19.7266 49.2051 19.5861L41.9815 17.5223V15.8465C41.9815 15.2109 41.4634 14.6952 40.8302 14.6952C40.1947 14.6952 39.6789 15.2109 39.6789 15.8465V39.6901C39.6766 40.6411 38.9006 41.4148 37.9519 41.4171H37.9404C37.3072 41.4171 36.7914 41.9328 36.7891 42.5638C36.7868 42.8723 36.9066 43.1601 37.123 43.3789C37.3395 43.5953 37.625 43.7174 37.9335 43.7197ZM33.9224 39.4736C33.9224 40.1068 34.4382 40.6226 35.0737 40.6226C35.7092 40.6226 36.225 40.1091 36.225 39.4736C36.225 38.8381 35.7092 38.3223 35.0737 38.3223C34.4382 38.3223 33.9224 38.8381 33.9224 39.4736ZM36.225 34.7441L36.2249 34.759V36.8114C36.2249 37.1775 36.0499 37.5229 35.7552 37.7393C35.5548 37.8867 35.3154 37.9627 35.0736 37.9627L35.0736 37.9629C34.9584 37.9629 34.8433 37.9468 34.7305 37.9099L16.48 32.2067H15.7536L18.9182 48.0258C18.9436 48.1225 18.9574 48.2215 18.9574 48.3252C18.9574 48.9607 18.4416 49.4765 17.8061 49.4765L17.8061 49.4765H17.8038H12.0472C11.4992 49.4765 11.0249 49.0896 10.9189 48.5508L7.6501 32.2067H6.29074C5.65523 32.2067 5.13944 31.6909 5.13944 31.0554V29.9042H1.68548C1.04997 29.9042 0.53418 29.3884 0.53418 28.7529V19.5424C0.53418 18.9068 1.04997 18.391 1.68548 18.391H5.13944V17.2393C5.13944 16.6038 5.65523 16.088 6.29074 16.088H16.4776L33.9314 10.6337C33.9961 9.65924 34.4061 8.75362 35.1013 8.05628C35.8635 7.29639 36.8743 6.87733 37.952 6.87733H37.9589C38.5944 6.87733 39.1102 7.39772 39.1079 8.03093C39.1079 8.66414 38.5898 9.17993 37.9566 9.17993H37.952C37.0033 9.17993 36.2273 9.95592 36.225 10.9069V34.7441ZM14.3574 29.9041L14.3498 29.904H8.59325L8.58567 29.9041H7.44199V28.7646L7.44204 28.7529V19.5424L7.44199 19.5306V18.391H15.5012V29.9041H14.3574ZM9.99791 32.2067L12.9913 47.1739H16.3992L13.4058 32.2067H9.99791ZM17.8038 30.2078V18.0869L33.9223 13.0487V35.2459L17.8038 30.2078ZM39.6789 11.1191C39.6789 11.7546 40.1947 12.2704 40.8302 12.2704C41.4658 12.2704 41.9815 11.7523 41.9815 11.1191C41.9815 10.4836 41.4635 9.96782 40.8302 9.96782C40.1947 9.96782 39.6789 10.4836 39.6789 11.1191ZM41.9817 28.3774V19.9173L47.7382 21.5617V26.7333L41.9817 28.3774ZM2.83678 27.6016H5.13938V20.6935H2.83678V27.6016ZM46.8168 15.6276C47.0424 15.9292 47.3878 16.0881 47.7378 16.0881C47.9796 16.0881 48.2214 16.0121 48.4286 15.8578L53.0339 12.4039C53.5428 12.0216 53.6464 11.3009 53.2641 10.792C52.8819 10.2831 52.1612 10.1795 51.6523 10.5617L47.047 14.0157C46.5381 14.398 46.4345 15.1187 46.8168 15.6276ZM54.6459 44.8709C54.4064 44.8709 54.1623 44.7949 53.9551 44.6407L49.3498 41.1867C48.8409 40.8045 48.7373 40.0837 49.1195 39.5748C49.5018 39.0659 50.2225 38.9623 50.7314 39.3446L55.3367 42.7985C55.8455 43.1808 55.9492 43.9015 55.5669 44.4104C55.3413 44.712 54.9959 44.8709 54.6459 44.8709ZM51.6526 37.7326C51.8598 37.8869 52.1039 37.9629 52.3434 37.9629C52.6934 37.9629 53.0388 37.804 53.2644 37.5024C53.6467 36.9935 53.543 36.2727 53.0342 35.8905L48.4289 32.4365C47.92 32.0543 47.1993 32.1579 46.817 32.6668C46.4348 33.1757 46.5384 33.8964 47.0473 34.2787L51.6526 37.7326ZM8.59323 21.8444H10.8958V19.5418H8.59323V21.8444ZM14.3501 21.8444H12.0475V19.5418H14.3501V21.8444Z" fill="url(#paint0_linear)"/>
</g>
<defs>
<linearGradient id="paint0_linear" x1="39.0937" y1="61.8866" x2="62.3853" y2="13.1415" gradientUnits="userSpaceOnUse">
<stop stop-color="#1F95FD"/>
<stop offset="1" stop-color="#4FE8E4"/>
</linearGradient>
</defs>
</svg>
