<svg width="56" height="56" viewBox="0 0 56 56" fill="none" xmlns="http://www.w3.org/2000/svg">
<g id="4. Elements / Icons / Basics / Business Personal Branding">
<g id="Group 8">
<path id="Combined Shape" fill-rule="evenodd" clip-rule="evenodd" d="M36.378 32.6544C36.6572 32.6544 36.9202 32.78 37.097 32.9941L54.3715 54.0644H55.926V55.9261H0.0749512V54.0644H1.62949L18.9037 32.9947C19.0805 32.7806 19.3435 32.6549 19.6228 32.6549H19.7996L22.4153 20.4558V14.9685H21.4845C17.891 14.9685 14.9682 12.0453 14.9682 8.45224V1.00544C14.9682 0.491142 15.3848 0.074585 15.899 0.074585H19.6225C20.1367 0.074585 20.5533 0.491142 20.5533 1.00544V8.45224C20.5533 8.96654 20.9722 9.3831 21.4842 9.3831H23.8485C22.9596 8.39404 22.4151 7.09085 22.4151 5.65969C22.4151 2.57856 24.919 0.074585 28.0002 0.074585C31.0813 0.074585 33.5853 2.57856 33.5853 5.65969C33.5853 7.09085 33.0408 8.39404 32.1518 9.3831H34.5162C35.0282 9.3831 35.447 8.96654 35.447 8.45224V1.00544C35.447 0.491142 35.8636 0.074585 36.3779 0.074585H40.1013C40.6156 0.074585 41.0321 0.491142 41.0321 1.00544V8.45224C41.0321 10.5769 40.0059 12.4595 38.4304 13.644C39.2729 14.4842 39.9221 15.4918 40.4643 16.4366L40.832 17.0835L40.841 17.0994L40.841 17.0994L40.841 17.0995C41.4963 18.2618 42.1159 19.361 42.9916 20.2065C43.7898 20.9791 45.1721 21.7331 46.4288 21.3026H46.4311C46.9174 21.135 47.4481 21.398 47.6133 21.8844C47.7785 22.373 47.5179 22.9013 47.0315 23.0666C47.0292 23.0689 47.0268 23.0689 47.0268 23.0689C46.0754 23.3946 45.0681 24.7948 44.1793 26.0302L44.1785 26.0313C43.6013 26.8365 43.0568 27.5929 42.4843 28.1444C40.8484 29.7222 39.1472 30.1923 37.4019 30.1923C36.8201 30.1923 36.2337 30.1387 35.6449 30.0573L36.2011 32.6544H36.378ZM39.2054 18.0025L38.847 17.3695L38.8468 17.3695C38.2511 16.3363 37.5785 15.3077 36.6942 14.5863C36.0101 14.8283 35.2793 14.9679 34.516 14.9679H33.5852V20.4553L35.2258 28.1022C37.8277 28.535 39.5288 28.4048 41.1904 26.8037C41.6419 26.3685 42.1399 25.6774 42.6658 24.9443C43.1359 24.2904 43.613 23.6272 44.1226 23.0407C43.1708 22.7289 42.3261 22.1611 41.6931 21.5514C40.6163 20.5118 39.8998 19.2375 39.2067 18.0049L39.2054 18.0025ZM28.0003 1.93618C25.9478 1.93618 24.2769 3.60706 24.2769 5.65958C24.2769 7.7121 25.9478 9.38299 28.0003 9.38299C30.0528 9.38299 31.7237 7.7121 31.7237 5.65958C31.7237 3.60706 30.0528 1.93618 28.0003 1.93618ZM24.2769 20.5531C24.2769 20.6183 24.2699 20.6834 24.2559 20.7486L21.7054 32.654H24.4817L27.0974 22.1891C27.1997 21.7749 27.5721 21.484 28.0003 21.484C28.4284 21.484 28.8008 21.7749 28.9032 22.1891L31.5188 32.654H34.2951L31.7446 20.7486C31.7307 20.6834 31.7237 20.6183 31.7237 20.5531V14.0369C31.7237 13.5226 32.1403 13.106 32.6545 13.106H34.5163C37.0831 13.106 39.1705 11.0186 39.1705 8.45177V1.93551H37.3088V8.45177C37.3088 9.9923 36.0568 11.2443 34.5163 11.2443H21.4843C19.9438 11.2443 18.6918 9.9923 18.6918 8.45177V1.93551H16.8301V8.45177C16.8301 11.0186 18.9175 13.106 21.4843 13.106H23.346C23.8603 13.106 24.2769 13.5226 24.2769 14.0369V20.5531ZM26.4016 32.654H29.6014L28.0003 26.2521L26.4016 32.654ZM35.9377 34.5157H20.0623L15.4242 40.1706L18.6915 43.4379L22.6872 39.4422C23.0525 39.0792 23.6413 39.0792 24.0043 39.4422L28 43.4379L31.9956 39.4422C32.3609 39.0792 32.9497 39.0792 33.3127 39.4422L37.3084 43.4379L40.5757 40.1729L35.9377 34.5157ZM14.2377 41.6175L4.03559 54.0632L51.9651 54.0632L41.7606 41.6199L37.9674 45.4131C37.7858 45.5946 37.5462 45.6854 37.3088 45.6854C37.0714 45.6854 36.8317 45.5946 36.6502 45.4131L32.6545 41.4174L28.6589 45.4131C28.2935 45.7761 27.7048 45.7761 27.3417 45.4131L23.3461 41.4174L19.3481 45.4108C18.9828 45.7738 18.394 45.7738 18.0309 45.4108L14.2377 41.6175ZM28.9311 50.3404V52.2021H27.0694V50.3404H28.9311ZM30.7928 52.2021H32.6545V50.3404H30.7928V52.2021ZM25.2077 52.2021H23.346V50.3404H25.2077V52.2021Z" fill="url(#paint0_linear)"/>
</g>
</g>
<defs>
<linearGradient id="paint0_linear" x1="39.0442" y1="70.9765" x2="70.3779" y2="16.33" gradientUnits="userSpaceOnUse">
<stop stop-color="#1F95FD"/>
<stop offset="1" stop-color="#4FE8E4"/>
</linearGradient>
</defs>
</svg>
