<svg width="56" height="56" viewBox="0 0 56 56" fill="none" xmlns="http://www.w3.org/2000/svg">
<g id="4. Elements / Icons / Basics / Project">
<path id="Combined Shape" fill-rule="evenodd" clip-rule="evenodd" d="M37.614 5.83409H48.114L48.1142 5.834C48.4226 5.834 48.7201 5.95646 48.9389 6.17525C49.1576 6.39404 49.2801 6.69153 49.2801 6.99996V54.834C49.2801 55.1425 49.1577 55.44 48.9389 55.6588C48.7201 55.8775 48.4226 56 48.1142 56H8.44599C8.13753 56 7.84003 55.8775 7.62128 55.6588C7.40253 55.44 7.28003 55.1425 7.28003 54.834V6.99996C7.28003 6.35467 7.80285 5.83404 8.44595 5.83404H18.9459V4.66594C18.9459 4.02283 19.4688 3.50002 20.1141 3.50002H23.765C24.3009 1.44594 26.1581 0.0131226 28.28 0.0131226C30.4019 0.0131226 32.259 1.44594 32.795 3.50002H36.4459C36.7565 3.50002 37.0519 3.62252 37.2706 3.84127C37.4894 4.06006 37.614 4.35755 37.614 4.66598V5.83409ZM24.78 5.83409H21.28L21.2801 8.16598H35.2801V5.83409H31.7801C31.4716 5.83409 31.1741 5.7094 30.9553 5.49065C30.7366 5.27186 30.6141 4.97656 30.6141 4.66594C30.6141 3.37749 29.5685 2.33404 28.28 2.33404C26.9916 2.33404 25.9459 3.37749 25.9459 4.66594C25.9459 4.97659 25.8234 5.2719 25.6047 5.49065C25.3859 5.7094 25.0884 5.83409 24.78 5.83409ZM9.61404 53.6659H46.9459L46.9481 8.16593H37.6141V9.33403C37.6141 9.64249 37.4894 9.94 37.2706 10.1587C37.0518 10.3775 36.7565 10.5 36.4459 10.5H20.1141C19.8034 10.5 19.5081 10.3775 19.2894 10.1587C19.0706 9.93995 18.9459 9.64247 18.9459 9.33403L18.9481 8.16593H9.61404V53.6659ZM14.28 40.8341H21.28L21.28 40.834C21.5885 40.834 21.886 40.9565 22.1047 41.1753C22.3235 41.3941 22.446 41.6916 22.446 42V49C22.446 49.3085 22.3235 49.606 22.1047 49.8247C21.8859 50.0435 21.5884 50.166 21.28 50.166H14.28C13.9715 50.166 13.674 50.0435 13.4553 49.8247C13.2365 49.6059 13.114 49.3084 13.114 49V42C13.114 41.3547 13.6347 40.8341 14.28 40.8341ZM15.4459 47.8341H20.114L20.1119 43.166H15.4459V47.8341ZM21.28 28H14.28C13.6347 28 13.114 28.5228 13.114 29.1659V36.1659C13.114 36.4766 13.2365 36.7718 13.4553 36.9906C13.674 37.2094 13.9715 37.3341 14.28 37.3341H21.28C21.5884 37.3341 21.8859 37.2094 22.1047 36.9906C22.3235 36.7719 22.446 36.4766 22.446 36.1659V29.1659C22.446 28.8575 22.3235 28.56 22.1047 28.3412C21.886 28.1224 21.5885 28 21.28 28L21.28 28ZM20.114 35H15.4459V30.3341H20.1119L20.114 35ZM27.114 21H42.28C42.9253 21 43.4459 21.5228 43.4459 22.1659C43.4459 22.8112 42.9253 23.334 42.28 23.334H27.114C26.4687 23.334 25.9459 22.8112 25.9459 22.1659C25.9459 21.5228 26.4688 21 27.114 21ZM27.114 16.3341C26.4688 16.3341 25.9459 16.8547 25.9459 17.5C25.9459 18.1453 26.4687 18.6659 27.114 18.6659H42.28C42.9253 18.6659 43.4459 18.1453 43.4459 17.5C43.4459 16.8547 42.9253 16.3341 42.28 16.3341H27.114ZM27.114 33.8341H42.28C42.9253 33.8341 43.4459 34.3547 43.4459 35C43.4459 35.6453 42.9253 36.1659 42.28 36.1659H27.114C26.4687 36.1659 25.9459 35.6453 25.9459 35C25.9459 34.3547 26.4688 33.8341 27.114 33.8341ZM42.28 29.1659H27.114C26.4688 29.1659 25.9459 29.6887 25.9459 30.334C25.9459 30.9771 26.4687 31.5 27.114 31.5H42.28C42.9253 31.5 43.4459 30.9771 43.4459 30.334C43.4459 29.6887 42.9253 29.1659 42.28 29.1659ZM27.114 46.6659H42.28C42.9253 46.6659 43.4459 47.1887 43.4459 47.834C43.4459 48.4771 42.9253 49 42.28 49H27.114C26.4687 49 25.9459 48.4771 25.9459 47.834C25.9459 47.1887 26.4688 46.6659 27.114 46.6659ZM42.28 42H27.114C26.4688 42 25.9459 42.5228 25.9459 43.1659C25.9459 43.8112 26.4687 44.334 27.114 44.334H42.28C42.9253 44.334 43.4459 43.8112 43.4459 43.1659C43.4459 42.5228 42.9253 42 42.28 42ZM16.6143 20.5212L20.4512 16.6712C20.9084 16.214 21.6521 16.214 22.1093 16.6712C22.5665 17.1284 22.5665 17.8721 22.1093 18.3293L22.1071 18.3271C18.5199 21.9019 17.4528 23.4032 16.4994 23.3341C15.7725 23.2815 15.1118 22.3162 13.4512 20.6612C12.994 20.204 12.994 19.4625 13.4512 19.0053C13.9083 18.5481 14.6521 18.5481 15.1093 19.0053L16.6143 20.5212Z" fill="url(#paint0_linear)"/>
</g>
<defs>
<linearGradient id="paint0_linear" x1="36.585" y1="71.0869" x2="71.7035" y2="25.1403" gradientUnits="userSpaceOnUse">
<stop stop-color="#1F95FD"/>
<stop offset="1" stop-color="#4FE8E4"/>
</linearGradient>
</defs>
</svg>
